# xmcd
#
# Track frame offsets: 
#        182
#        19115
#        37642
#        48472
#        63420
#        77895
#        91995
#        113062
#        128765
#        143420
#        156465
#        176285
#        189387
#        207035
#        224442
#        238455
#        254845
#        269175
#        284780
#        299810
#
# Disc length: 4153 seconds
#
# Revision: 0
# Processed by: cddbd v1.4PL0 Copyright (c) Steve Scherf et al.
# Submitted via: ExactAudioCopy v0.90b2
#
DISCID=3b103714
DTITLE=Earl Thomas Conley - Fire And Smoke - Double Play (2 LP's On 1 
DTITLE=CD)
DYEAR=1900
DGENRE=Country
TTITLE0=Somewhere Between Right And Wrong
TTITLE1=I Need A Good Woman Bad
TTITLE2=Bottled Up Blues
TTITLE3=Treadin' Water
TTITLE4=Silent Treatment
TTITLE5=You Can't Go On Like A Rolling Stone
TTITLE6=Crowd Around The Corner
TTITLE7=Love Don't Care
TTITLE8=Fire And Smoke
TTITLE9=Too Hot To Handle
TTITLE10=That Was Close One
TTITLE11=Changes Of Love
TTITLE12=Too Many Times
TTITLE13=As Low As You Can Go
TTITLE14=We've Got All Night
TTITLE15=If Leavin' Was Easy
TTITLE16=Your Love Is Just For Strangers
TTITLE17=Like Cinderella
TTITLE18=After The Love Slips Away
TTITLE19=I Have Loved You, Girl
EXTD=
EXTT0=
EXTT1=
EXTT2=
EXTT3=
EXTT4=
EXTT5=
EXTT6=
EXTT7=
EXTT8=
EXTT9=
EXTT10=
EXTT11=
EXTT12=
EXTT13=
EXTT14=
EXTT15=
EXTT16=
EXTT17=
EXTT18=
EXTT19=
PLAYORDER=
